<?xml version="1.0" standalone="no"?>
<!DOCTYPE svg PUBLIC "-//W3C//DTD SVG 20010904//EN"
 "http://www.w3.org/TR/2001/REC-SVG-20010904/DTD/svg10.dtd">
<svg version="1.0" xmlns="http://www.w3.org/2000/svg"
 width="2914.000000pt" height="2914.000000pt" viewBox="0 0 2914.000000 2914.000000"
 preserveAspectRatio="xMidYMid meet">

<g transform="translate(0.000000,2914.000000) scale(0.100000,-0.100000)"
fill="#ffff" stroke="none">
<path d="M14225 29134 c-186 -5 -556 -23 -700 -34 -261 -21 -841 -82 -945
-100 -30 -5 -107 -17 -170 -25 -135 -19 -320 -50 -405 -69 -33 -8 -85 -17
-115 -21 -177 -23 -782 -161 -1146 -260 -1431 -393 -2769 -989 -4029 -1795
-500 -320 -1050 -722 -1455 -1064 -385 -325 -431 -366 -784 -707 -341 -329
-773 -784 -991 -1044 -27 -33 -60 -71 -73 -85 -13 -14 -60 -72 -105 -129 -45
-57 -111 -138 -145 -180 -171 -206 -549 -725 -653 -896 -23 -38 -53 -81 -65
-95 -20 -22 -194 -287 -194 -295 0 -2 -22 -36 -48 -77 -26 -40 -77 -122 -112
-183 -35 -60 -77 -132 -95 -160 -46 -74 -186 -321 -258 -455 -195 -368 -415
-827 -552 -1150 -31 -74 -65 -153 -74 -175 -29 -63 -189 -477 -238 -615 -62
-173 -240 -714 -248 -753 -4 -18 -18 -66 -31 -107 -14 -41 -31 -100 -39 -130
-7 -30 -23 -87 -34 -126 -11 -39 -27 -100 -34 -135 -8 -35 -24 -95 -35 -134
-17 -62 -44 -176 -113 -478 -25 -108 -98 -497 -118 -627 -6 -36 -15 -87 -21
-113 -8 -41 -39 -253 -80 -542 -27 -199 -74 -690 -90 -955 -19 -315 -32 -856
-25 -1070 23 -782 60 -1237 160 -1945 56 -395 184 -1023 295 -1445 28 -107 55
-213 61 -235 5 -22 21 -78 35 -125 14 -47 32 -105 39 -130 112 -389 307 -951
450 -1300 26 -63 62 -151 80 -195 18 -44 45 -107 60 -140 15 -33 47 -107 72
-165 88 -205 327 -695 450 -925 405 -753 793 -1356 1302 -2024 31 -41 130
-167 220 -280 143 -179 213 -263 321 -382 14 -16 39 -45 55 -65 17 -20 51 -60
77 -88 25 -28 72 -80 104 -116 299 -339 758 -794 1094 -1085 57 -49 129 -113
159 -141 49 -44 300 -256 417 -351 21 -17 57 -47 80 -65 22 -19 74 -58 115
-88 41 -30 106 -80 144 -111 39 -31 111 -86 161 -120 100 -70 143 -101 237
-170 321 -235 900 -597 1397 -872 134 -75 621 -322 785 -399 744 -350 1558
-649 2340 -862 276 -75 389 -103 675 -168 136 -30 575 -117 674 -133 50 -8
129 -21 176 -30 154 -28 568 -81 935 -119 796 -84 1656 -94 2505 -31 220 17
685 67 840 91 52 7 145 21 205 29 61 8 148 22 195 30 47 9 121 22 165 30 333
58 570 108 925 195 351 85 433 108 790 214 460 137 1150 391 1575 580 83 37
197 88 255 114 138 60 742 363 895 448 284 157 647 371 830 488 166 107 584
388 672 452 43 32 118 87 168 123 84 62 191 144 350 266 171 132 525 427 720
600 443 395 1212 1184 1370 1405 11 16 54 66 96 112 83 91 299 359 453 562
331 437 649 910 921 1371 160 272 168 286 240 420 18 33 70 130 115 215 106
198 312 620 383 785 14 33 51 119 83 190 101 232 124 287 210 510 131 336 195
519 318 905 104 329 124 397 207 715 40 154 48 188 83 340 8 39 31 139 51 224
19 84 41 190 50 235 8 44 24 131 35 191 11 61 27 153 35 205 8 52 22 131 30
175 9 44 22 125 30 180 7 55 22 161 33 235 94 623 146 1595 123 2305 -18 535
-59 1049 -117 1455 -14 102 -32 228 -39 280 -7 52 -21 138 -30 190 -9 52 -22
133 -30 180 -7 47 -18 105 -23 130 -6 25 -18 88 -28 140 -14 83 -92 440 -143
660 -16 68 -63 245 -127 480 -48 176 -105 363 -192 625 -377 1140 -869 2183
-1510 3205 -75 118 -371 561 -421 630 -10 14 -61 84 -112 155 -512 717 -1186
1478 -1888 2134 -510 475 -1102 947 -1703 1357 -197 135 -533 353 -556 361 -9
4 -30 16 -47 29 -102 75 -644 378 -1000 559 -1041 528 -2194 948 -3265 1190
-36 8 -105 24 -155 36 -164 38 -320 68 -351 69 -17 0 -51 7 -74 15 -23 8 -61
15 -85 15 -23 0 -64 7 -91 15 -27 8 -60 15 -74 15 -14 0 -51 7 -82 15 -31 8
-89 19 -129 24 -41 6 -117 17 -169 25 -52 9 -192 27 -310 41 -118 14 -246 30
-285 35 -68 10 -297 31 -535 50 -306 25 -1013 43 -1335 34z m1060 -350 c2746
-145 5350 -1052 7560 -2633 479 -342 956 -732 1409 -1151 98 -90 623 -615 721
-720 804 -864 1519 -1853 2080 -2880 973 -1780 1549 -3711 1704 -5715 57 -730
53 -1650 -9 -2335 -260 -2850 -1289 -5435 -3045 -7645 -501 -630 -1112 -1272
-1730 -1815 -2256 -1984 -5080 -3209 -8045 -3489 -502 -48 -678 -55 -1320 -56
-627 0 -770 5 -1245 46 -1800 153 -3562 647 -5165 1449 -183 91 -514 268 -640
340 -36 21 -81 47 -100 57 -19 11 -116 68 -215 128 -1958 1175 -3623 2829
-4822 4790 -1133 1854 -1831 3956 -2028 6110 -49 539 -69 1342 -46 1865 115
2652 925 5156 2368 7320 104 157 126 189 232 340 163 233 542 724 702 910 26
30 93 109 150 175 171 200 382 427 619 669 1114 1133 2375 2049 3808 2766
1763 882 3684 1382 5672 1479 262 12 1111 10 1385 -5z"/>
<path d="M14220 28314 c-759 -23 -1460 -97 -2175 -230 -1938 -361 -3786 -1143
-5405 -2288 -1055 -746 -2001 -1637 -2807 -2641 -903 -1126 -1636 -2418 -2142
-3777 -402 -1078 -662 -2189 -790 -3368 -87 -802 -99 -1699 -35 -2530 208
-2699 1242 -5319 2942 -7460 326 -410 601 -719 981 -1103 1092 -1105 2267
-1960 3631 -2642 1584 -793 3301 -1267 5095 -1410 649 -51 1437 -53 2080 -4
1651 124 3241 537 4750 1234 162 75 602 295 730 365 1099 603 1975 1231 2850
2041 220 204 664 652 841 849 864 962 1530 1935 2093 3060 161 323 181 364
308 655 978 2228 1347 4765 1047 7189 -308 2491 -1297 4860 -2853 6830 -132
167 -422 515 -486 582 -5 6 -41 46 -80 90 -382 432 -982 1008 -1480 1420
-1278 1057 -2753 1879 -4330 2413 -1197 405 -2457 643 -3750 710 -204 11 -843
20 -1015 15z m1200 -358 c542 -39 951 -88 1440 -172 2209 -381 4264 -1298
6025 -2688 645 -509 1312 -1150 1849 -1776 1166 -1361 2031 -2894 2585 -4580
357 -1089 553 -2113 642 -3350 16 -236 23 -1084 10 -1370 -141 -3132 -1313
-6037 -3371 -8355 -241 -272 -788 -822 -1052 -1059 -716 -642 -1578 -1265
-2337 -1688 -31 -17 -123 -69 -206 -115 -208 -116 -739 -380 -980 -487 -1340
-594 -2767 -969 -4190 -1101 -542 -50 -1318 -69 -1820 -46 -3125 146 -5996
1299 -8310 3335 -290 255 -801 759 -1066 1051 -796 879 -1475 1862 -2010 2910
-738 1446 -1195 2948 -1383 4555 -65 555 -81 856 -81 1545 1 628 9 824 56
1295 230 2324 1031 4501 2350 6390 273 392 646 862 1008 1270 190 214 769 796
984 988 732 655 1459 1187 2262 1654 1869 1087 3923 1696 6100 1808 270 13
1233 5 1495 -14z"/>
<path d="M13450 27515 l0 -115 68 0 c116 0 170 -29 214 -114 11 -22 101 -267
200 -545 98 -278 217 -614 264 -746 47 -132 95 -266 106 -297 l21 -58 206 0
206 0 27 73 c122 333 580 1542 596 1574 41 80 105 113 220 113 l63 0 -3 113
-3 112 -472 3 -473 2 0 -115 0 -115 113 0 c187 0 220 -21 199 -125 -8 -40
-406 -1122 -417 -1133 -1 -2 -10 16 -18 40 -8 24 -93 259 -187 523 -223 621
-223 620 -174 666 24 22 34 24 155 28 l129 3 0 114 0 114 -520 0 -520 0 0
-115z"/>
<path d="M14180 25393 c-962 -41 -1792 -176 -2665 -433 -1740 -513 -3318
-1451 -4605 -2740 -439 -439 -790 -850 -1135 -1330 -1516 -2109 -2223 -4703
-1990 -7305 275 -3071 1879 -5910 4376 -7745 1064 -782 2264 -1362 3534 -1709
2212 -606 4525 -504 6655 291 1851 692 3506 1897 4716 3433 898 1141 1544
2407 1928 3782 549 1963 538 4048 -30 5973 -473 1605 -1289 3050 -2424 4290
-149 164 -502 516 -660 661 -1793 1635 -4044 2611 -6465 2804 -374 30 -915 42
-1235 28z m715 -333 c1120 -40 2169 -238 3210 -608 1850 -656 3484 -1833 4713
-3393 1627 -2067 2421 -4677 2216 -7289 -134 -1720 -678 -3364 -1592 -4810
-403 -639 -895 -1253 -1437 -1795 -720 -722 -1489 -1299 -2410 -1810 -500
-277 -1122 -547 -1715 -746 -2015 -672 -4189 -711 -6255 -113 -2060 598 -3910
1837 -5250 3519 -876 1099 -1524 2354 -1900 3680 -366 1291 -482 2614 -344
3945 164 1597 676 3097 1525 4473 735 1192 1762 2269 2940 3085 1651 1144
3594 1791 5590 1861 325 12 402 12 709 1z"/>
<path d="M15610 24209 c-59 -118 -210 -364 -292 -474 -96 -131 -261 -297 -341
-344 -208 -122 -389 -127 -596 -14 -196 106 -420 336 -670 688 -51 72 -101
141 -111 155 -19 25 -19 23 -19 -188 -1 -317 24 -497 100 -727 126 -378 394
-658 706 -736 l43 -11 0 -350 0 -351 -52 7 c-75 10 -218 59 -319 110 -177 89
-312 190 -481 362 -127 129 -180 193 -287 342 -44 62 -82 108 -85 104 -2 -4
-10 -82 -16 -172 -52 -738 235 -1330 775 -1598 123 -61 277 -108 418 -127 l47
-6 0 -705 0 -704 -1722 0 -1723 0 -140 137 c-77 75 -237 232 -355 348 -471
462 -1139 1115 -1207 1179 l-72 68 45 61 c154 208 210 498 145 749 -43 168
-107 281 -230 410 -318 334 -837 370 -1209 85 -144 -111 -265 -295 -317 -482
-26 -93 -31 -303 -10 -406 69 -343 320 -610 665 -705 50 -14 101 -18 225 -18
145 0 168 3 248 27 48 15 115 41 148 58 34 17 63 29 64 27 2 -2 77 -75 167
-163 856 -840 1570 -1538 1621 -1584 l47 -44 0 -2185 0 -2185 -1790 8 -1790 7
0 -1081 0 -1081 1790 0 1790 0 0 -1047 0 -1048 -97 -94 c-54 -52 -476 -470
-939 -930 -462 -460 -888 -883 -946 -940 l-106 -103 -58 39 c-161 109 -312
155 -509 156 -137 0 -225 -16 -341 -63 -255 -102 -458 -326 -535 -592 -27 -92
-37 -304 -20 -404 63 -360 345 -653 704 -731 160 -35 373 -16 528 47 376 153
612 552 560 945 -14 104 -59 248 -100 323 l-29 52 941 935 942 936 3 -921 2
-920 1138 -1 1137 0 -70 -28 c-194 -77 -333 -167 -471 -305 -107 -108 -152
-170 -214 -294 -148 -297 -164 -661 -45 -1018 173 -523 603 -904 1114 -989
148 -25 404 -16 551 18 173 42 175 32 -15 127 -994 498 -1313 1264 -808 1941
115 154 316 338 522 478 l105 71 830 0 830 0 125 -84 c168 -111 275 -198 398
-323 212 -213 328 -412 380 -648 18 -84 20 -266 4 -353 -65 -341 -322 -677
-716 -936 -149 -98 -442 -256 -475 -256 -6 0 -9 -4 -6 -9 9 -14 206 -59 316
-72 116 -14 316 -6 425 16 427 88 793 378 993 787 237 486 209 1014 -74 1391
-162 216 -405 376 -709 467 -59 18 -33 18 1142 19 l1203 1 2 819 3 819 695
-680 c382 -374 766 -750 853 -836 l157 -156 -30 -43 c-45 -62 -107 -200 -132
-290 -31 -115 -30 -326 1 -443 91 -343 358 -596 700 -665 127 -26 327 -17 441
20 168 54 287 130 405 258 156 167 235 375 235 613 0 172 -42 322 -132 470
-117 195 -321 345 -548 405 -110 29 -319 32 -424 6 -83 -21 -185 -61 -247 -97
l-46 -27 -119 116 c-239 233 -1015 991 -1219 1192 -115 113 -297 290 -402 394
l-193 188 0 1170 0 1169 1735 -4 1735 -4 0 1123 0 1123 -1798 0 -1799 0 -6
182 c-4 99 -7 1050 -7 2112 l0 1932 533 520 c292 287 707 692 920 901 l389
380 51 -34 c154 -104 317 -153 507 -153 256 0 474 93 651 277 114 119 185 245
226 402 34 131 36 306 4 436 -139 570 -771 860 -1293 595 -241 -123 -418 -355
-475 -625 -8 -39 -15 -121 -15 -185 0 -148 27 -264 90 -394 l48 -96 -216 -213
c-202 -200 -423 -416 -945 -927 -121 -118 -310 -304 -420 -412 l-200 -196
-1705 -4 -1705 -3 -3 705 -2 706 82 12 c169 27 369 108 538 219 113 75 288
251 369 372 199 300 296 681 277 1091 -4 80 -10 162 -14 183 l-7 38 -73 -100
c-166 -229 -397 -469 -573 -593 -171 -122 -403 -225 -546 -244 l-53 -7 0 341
0 341 58 11 c440 87 762 438 874 952 29 138 36 430 13 608 -9 74 -20 141 -25
149 -6 11 -17 -3 -40 -50z m-6956 -1824 c260 -55 456 -285 473 -555 18 -289
-177 -552 -462 -625 -221 -56 -483 35 -620 217 -59 78 -77 115 -105 206 -19
63 -22 90 -18 190 4 100 9 128 35 194 79 199 245 335 468 382 46 9 165 5 229
-9z m12216 -83 c169 -59 289 -161 362 -307 174 -343 -20 -764 -397 -860 -76
-19 -214 -19 -290 0 -272 71 -458 306 -459 580 -1 289 175 519 458 596 91 25
243 20 326 -9z m-2879 -5372 c3 -1235 7 -2246 7 -2247 1 -2 615 -4 1365 -5
l1362 -3 0 -815 0 -815 -1297 -3 -1298 -2 0 -1735 0 -1735 -3505 0 -3505 0 0
1715 0 1715 -1320 0 -1320 0 0 778 0 777 1320 -3 1320 -4 0 2311 0 2311 1655
0 1655 0 0 -2973 0 -2973 -54 -11 c-149 -32 -310 -127 -434 -258 -386 -408
-386 -1095 1 -1502 127 -133 264 -213 434 -254 73 -18 109 -20 213 -17 107 4
139 10 219 37 362 122 614 466 650 889 34 391 -138 779 -434 979 -82 55 -117
72 -210 104 l-80 27 -3 2976 -2 2976 517 3 c285 1 1018 2 1628 2 l1110 0 6
-2245z m3609 -3077 l0 -826 -122 6 c-66 4 -195 7 -285 7 l-163 0 0 820 0 820
285 0 285 0 0 -827z m-13420 -73 l0 -780 -320 0 -320 0 0 780 0 780 320 0 320
0 0 -780z m6530 -870 c157 -46 305 -186 385 -367 83 -186 88 -451 13 -643 -65
-167 -181 -299 -323 -369 -81 -39 -131 -50 -225 -51 -149 0 -276 55 -389 169
-144 146 -214 325 -215 551 -1 147 17 233 74 357 98 212 267 347 465 372 75
10 132 5 215 -19z m3420 -3955 l0 -315 -3505 0 -3505 0 0 315 0 315 3505 0
3505 0 0 -315z m-9887 -525 c138 -20 249 -76 345 -172 188 -190 232 -459 116
-698 -52 -106 -171 -224 -274 -272 -102 -48 -168 -63 -280 -62 -155 2 -285 54
-401 161 -327 304 -220 852 198 1009 105 40 189 49 296 34z m12797 -100 c196
-64 354 -230 405 -426 19 -73 19 -232 1 -301 -59 -220 -225 -384 -446 -439
-96 -24 -263 -15 -350 18 -254 98 -415 344 -397 607 18 271 211 495 478 556
84 19 224 12 309 -15z m-8017 -322 c-175 -211 -279 -416 -329 -648 -24 -112
-24 -343 0 -449 77 -344 270 -639 596 -910 68 -57 61 -62 -32 -27 -424 159
-727 541 -803 1011 -43 266 12 535 154 744 49 73 170 189 257 247 62 41 211
121 232 124 1 0 -32 -42 -75 -92z m3210 16 c285 -143 462 -351 539 -634 20
-74 23 -108 23 -265 0 -164 -3 -189 -28 -287 -45 -173 -116 -327 -214 -466
-101 -143 -291 -306 -450 -386 -56 -28 -203 -80 -209 -73 -2 2 20 21 49 43
128 96 332 322 424 469 202 323 255 699 146 1035 -53 164 -168 367 -282 499
-60 70 -84 101 -77 101 4 0 39 -16 79 -36z"/>
<path d="M5508 23755 c-234 -38 -446 -155 -611 -337 -332 -366 -435 -767 -297
-1151 107 -296 412 -571 747 -674 81 -25 101 -27 263 -27 163 0 181 2 265 28
222 68 402 195 562 397 126 160 214 331 256 498 31 126 31 351 -1 471 -47 175
-136 326 -271 460 -262 260 -605 385 -913 335z m103 -390 c198 -49 509 -260
640 -434 139 -183 187 -383 132 -556 -41 -133 -154 -285 -263 -355 -245 -157
-571 -95 -910 176 -71 57 -169 156 -217 219 -126 167 -169 371 -113 544 65
204 263 388 450 421 72 12 201 5 281 -15z"/>
<path d="M23905 23114 c-387 -139 -550 -198 -1005 -359 -252 -89 -298 -96
-372 -52 -25 14 -66 50 -91 79 l-45 52 -53 -44 c-30 -24 -68 -56 -86 -71 l-32
-28 285 -355 c157 -196 290 -356 296 -356 10 0 153 114 163 130 3 5 -16 35
-43 67 -59 71 -109 144 -113 163 -5 25 10 56 34 68 56 29 321 122 327 115 27
-30 379 -472 389 -488 12 -18 4 -36 -64 -150 -95 -159 -109 -175 -151 -175
-37 0 -88 46 -164 149 -25 33 -50 60 -57 61 -6 0 -48 -30 -92 -66 l-81 -66 17
-24 c72 -96 620 -773 627 -774 9 0 136 101 156 125 9 10 1 28 -34 80 -57 82
-63 105 -44 166 9 26 212 384 451 796 240 412 439 756 443 766 4 12 -29 60
-122 177 -71 88 -131 159 -134 159 -3 0 -185 -66 -405 -145z m163 -262 c-16
-42 -364 -620 -369 -614 -49 57 -300 374 -297 377 5 4 652 243 661 244 5 1 7
-3 5 -7z"/>
<path d="M2570 13515 l0 -525 109 0 108 0 6 133 c2 72 10 145 16 160 17 45 62
57 205 57 103 0 135 -4 182 -21 147 -55 228 -204 227 -419 0 -171 -44 -284
-153 -391 -121 -119 -277 -179 -521 -199 -461 -40 -825 136 -905 435 -18 67
-18 207 1 278 53 203 227 358 484 432 l76 22 3 112 3 111 -391 0 -390 0 0
-103 0 -103 85 -42 84 -42 -50 -66 c-130 -172 -184 -378 -160 -609 27 -245
113 -428 280 -596 130 -129 283 -216 471 -267 86 -23 113 -26 290 -26 212 -1
290 12 438 70 160 63 329 194 438 337 63 83 128 223 156 333 29 117 32 362 4
464 -37 137 -79 230 -153 334 -20 27 -31 51 -25 55 5 3 42 26 81 51 l71 45 0
107 0 107 -382 3 c-441 3 -437 3 -457 82 -6 25 -11 81 -11 125 l0 81 -110 0
-110 0 0 -525z"/>
<path d="M25831 13828 c-7 -46 -14 -90 -17 -100 -4 -12 17 -28 85 -64 l89 -48
-65 -70 c-176 -190 -274 -410 -289 -649 -26 -423 241 -737 628 -737 230 0 415
137 551 405 19 39 81 185 137 325 102 254 147 346 192 386 42 39 88 56 150 56
161 0 249 -129 235 -342 -12 -175 -64 -299 -171 -406 -108 -109 -247 -170
-427 -188 l-66 -7 -17 -106 c-9 -59 -14 -108 -11 -111 6 -6 680 -111 716 -112
25 0 26 3 38 86 l12 86 -61 56 c-33 31 -60 61 -60 67 0 6 18 29 41 50 116 112
206 291 240 475 18 97 15 282 -4 360 -48 185 -160 330 -310 400 -115 54 -249
77 -350 61 -190 -31 -322 -151 -451 -408 -24 -49 -81 -180 -126 -293 -101
-251 -126 -302 -180 -363 -60 -68 -110 -91 -190 -91 -72 0 -115 18 -168 67
-51 49 -74 124 -74 242 1 406 234 665 631 699 41 3 77 8 79 11 3 3 13 53 22
111 12 74 14 107 6 110 -10 4 -782 124 -796 124 -4 0 -12 -37 -19 -82z"/>
<path d="M20742 5112 l-83 -37 6 -75 c3 -41 8 -86 11 -99 5 -22 3 -23 -33 -18
-188 26 -268 30 -376 18 -384 -42 -685 -284 -753 -602 -51 -240 83 -526 296
-634 97 -49 154 -60 320 -59 149 0 166 2 435 58 331 68 390 75 466 53 130 -38
196 -196 133 -318 -41 -80 -168 -170 -311 -220 -75 -26 -222 -36 -294 -19
-148 34 -272 117 -395 262 l-39 46 -95 -43 c-72 -33 -95 -47 -94 -62 1 -10 63
-153 139 -318 75 -165 142 -312 148 -327 l12 -27 82 36 81 36 17 89 c14 72 21
88 34 84 112 -34 327 -32 451 4 341 98 576 342 596 619 12 159 -56 344 -168
455 -93 92 -184 130 -343 142 -111 9 -256 -9 -544 -66 -340 -69 -434 -67 -521
8 -105 89 -120 233 -34 335 68 82 228 171 368 207 157 40 314 18 451 -62 73
-43 194 -157 240 -226 l27 -41 51 23 c48 21 147 68 155 73 3 1 -160 368 -289
651 -23 50 -47 92 -53 91 -6 0 -48 -17 -94 -37z"/>
<path d="M9385 4507 c-27 -50 -51 -94 -52 -97 -2 -3 24 -21 57 -40 89 -51 113
-79 117 -142 3 -34 -37 -340 -112 -868 -64 -448 -119 -840 -122 -871 l-5 -55
176 -98 c97 -54 180 -96 185 -94 8 3 627 553 1021 908 235 212 289 255 336
270 50 17 114 6 191 -32 63 -31 65 -31 77 -12 6 10 30 54 53 96 l43 77 -88 49
c-48 27 -159 89 -247 137 -88 48 -228 125 -312 171 -83 46 -154 84 -157 84 -5
0 -89 -151 -101 -180 -4 -11 19 -29 87 -65 115 -63 162 -105 153 -137 -6 -21
-121 -137 -225 -227 l-45 -39 -265 147 c-146 80 -274 152 -284 158 -20 11 -20
13 3 164 24 159 37 201 72 219 22 12 71 1 124 -30 17 -9 60 -33 97 -54 l67
-36 50 94 c28 51 51 96 51 99 0 3 -60 39 -132 80 -199 112 -755 417 -759 417
-2 0 -26 -42 -54 -93z m640 -1216 l208 -114 -34 -31 c-196 -182 -491 -447
-494 -444 -2 2 18 158 45 347 28 189 50 348 50 353 0 13 -12 19 225 -111z"/>
</g>
</svg>
